<svg xmlns="http://www.w3.org/2000/svg" viewBox="0 0 1600 700" preserveAspectRatio="xMidYMid slice" role="img" aria-label="Banner placeholder: studio services">
  <defs>
    <linearGradient id="b3" x1="0" y1="0" x2="1" y2="1">
      <stop offset="0" stop-color="#fdfaf3"/>
      <stop offset="1" stop-color="#f1e6cd"/>
    </linearGradient>
    <radialGradient id="b3g" cx="0.75" cy="0.35" r="0.8">
      <stop offset="0" stop-color="#ffffff" stop-opacity="0.95"/>
      <stop offset="1" stop-color="#ffffff" stop-opacity="0"/>
    </radialGradient>
  </defs>
  <rect width="1600" height="700" fill="url(#b3)"/>
  <rect width="1600" height="700" fill="url(#b3g)"/>
  <g stroke="#8a6420" stroke-width="6" stroke-linecap="round" stroke-opacity="0.5">
    <path d="M900,350 v-40 M950,350 v-110 M1000,350 v-60 M1050,350 v-150 M1100,350 v-90 M1150,350 v-190 M1200,350 v-70 M1250,350 v-130 M1300,350 v-50 M1350,350 v-100 M1400,350 v-40"/>
  </g>
  <g stroke="#b9892e" stroke-width="6" stroke-linecap="round" stroke-opacity="0.35">
    <path d="M900,350 v40 M950,350 v110 M1000,350 v60 M1050,350 v150 M1100,350 v90 M1150,350 v190 M1200,350 v70 M1250,350 v130 M1300,350 v50 M1350,350 v100 M1400,350 v40"/>
  </g>
  <g fill="none" stroke="#8a6420" stroke-opacity="0.5" stroke-width="2.6">
    <rect x="330" y="150" width="150" height="250" rx="75"/>
    <path d="M270,350 a135,135 0 0 0 270,0 M405,485 v75 M330,560 h150"/>
  </g>
  <text x="1560" y="672" text-anchor="end" font-family="Helvetica, sans-serif" font-size="15" letter-spacing="3" fill="#9a9080">BANNER PLACEHOLDER 3 - REPLACE WITH STUDIO PHOTO</text>
</svg>
