<svg xmlns="http://www.w3.org/2000/svg" viewBox="0 0 880 1100" role="img" aria-label="Placeholder for artist portrait">
  <defs>
    <linearGradient id="bg" x1="0" y1="0" x2="1" y2="1">
      <stop offset="0" stop-color="#fdfaf3"/>
      <stop offset="0.55" stop-color="#f6eedd"/>
      <stop offset="1" stop-color="#eee2c8"/>
    </linearGradient>
    <radialGradient id="glow" cx="0.5" cy="0.32" r="0.75">
      <stop offset="0" stop-color="#ffffff" stop-opacity="0.95"/>
      <stop offset="1" stop-color="#ffffff" stop-opacity="0"/>
    </radialGradient>
  </defs>
  <rect width="880" height="1100" fill="url(#bg)"/>
  <rect width="880" height="1100" fill="url(#glow)"/>
  <g transform="translate(440,470)" fill="none" stroke="#8a6420" stroke-opacity="0.55" stroke-width="3">
    <path d="M0,-290 L0,-150"/>
    <path d="M-16,-290 L16,-290 M-16,-262 L16,-262"/>
    <path d="M0,-150 C95,-150 130,-80 100,-28 C80,8 80,40 108,72 C150,124 118,230 0,230 C-118,230 -150,124 -108,72 C-80,40 -80,8 -100,-28 C-130,-80 -95,-150 0,-150 Z"/>
    <path d="M-34,10 C-46,26 -40,52 -22,58 M34,10 C46,26 40,52 22,58" stroke-width="2.4"/>
    <line x1="0" y1="-160" x2="0" y2="120" stroke-opacity="0.3" stroke-width="8"/>
  </g>
  <g font-family="Georgia, serif" text-anchor="middle">
    <text x="440" y="880" font-size="30" font-style="italic" fill="#8a6420">Portrait of the artist</text>
    <text x="440" y="922" font-size="17" letter-spacing="4" fill="#9a9080">PLACEHOLDER - REPLACE WITH PHOTO</text>
  </g>
  <rect x="26" y="26" width="828" height="1048" fill="none" stroke="#b9892e" stroke-opacity="0.35" stroke-width="1.5"/>
</svg>
